<?xml version="1.0" encoding="utf-8"?>
<!-- Generator: Adobe Illustrator 21.0.0, SVG Export Plug-In . SVG Version: 6.00 Build 0)  -->
<svg version="1.1" id="Calque_1" xmlns="http://www.w3.org/2000/svg" xmlns:xlink="http://www.w3.org/1999/xlink" x="0px" y="0px"
	 viewBox="0 0 444.8 201.5" style="enable-background:new 0 0 444.8 201.5;" xml:space="preserve">
<style type="text/css">
	.st0{fill:#FFFFFF;}
</style>
<g>
	<path class="st0" d="M185.8,79.6c-6.8,3-14.6,2.6-19.1-2c-10.8-11.6,0.1-49.7-1.1-64.2c-1.2-16-14.4,3.2-20,8.2
		c-0.7,9-1.4,26.8-3.5,35.6c-1.2,5.3-15,5.2-14.4-1.2c0.8-8.6,4.6-38.4,3.8-47c-0.8-10.7-19.4,16.2-20.8,18.4
		c-0.7,12.6-0.5,21.1-1.2,33.7c-0.5,6.6-15.5,4.9-15,0.1c1.7-20.2,1.8-36.2,2.8-56.5c0.2-6.2,15.4-5.3,15,0.4
		c-0.4,4.9-0.7,9.6-1.1,14.4c5.4-7.4,24.5-28.3,33.5-15c1.9,2.9,1.4,7.6,1.2,11c8.8-9,12.1-13.7,25.1-13.1c4.9,0.1,9.2,2.2,9.8,10.7
		c1.3,15.7-7,48.4-1.8,60.1c1,2.2,2.5,3.1,5.4,2.5C187.6,74.9,188.8,78.3,185.8,79.6z"/>
	<path class="st0" d="M227,43.9c-5.2,10.1-14.3,26.3-27.4,25.8c-19.6-0.7-20.9-41.4-3.2-48c8.2-3,17.2-0.4,18.6,6.7
		c1.4,7.6-11,15.8-19.1,19.2c0.4,6.4,2.4,12.2,6.6,14c6.6,2.6,15.6-5.5,22.2-17.8H227z M195.9,45.3c7.6-3.8,18.2-10.8,16.3-16.7
		c-1.7-4.7-7.4-6.7-12-0.8C197.6,31.1,195.9,38.3,195.9,45.3z"/>
	<path class="st0" d="M224.4,44.2c1.3-2.8,3.6-8.6,4.6-12.5c-3.1-1.2-6-3.5-6.1-6.5c-0.4-8.8,14.5-7.8,9.7,3.7
		c4.6,1.1,22.3-1,21.7,5c-1,8.4-15.6,35-9.5,33.4c7.6-2.2,14.4-13.2,20-23.4h2.3c-5.8,10.6-12.8,27.4-26.2,29.5
		c-18.7,3.2,0.1-38-0.4-40.3c0-0.1-8.4-0.5-9.1-0.7c-0.8,2.6-3.1,8.6-4.8,11.8H224.4z"/>
	<path class="st0" d="M264.8,44.2c1.3-2.8,3.6-8.6,4.6-12.5c-3.1-1.2-6-3.5-6.1-6.5c-0.4-8.8,14.5-7.8,9.7,3.7
		c4.6,1.1,22.3-1,21.7,5c-1,8.4-15.6,35-9.5,33.4c7.6-2.2,14.4-13.2,20-23.4h2.3c-5.8,10.6-12.8,27.4-26.2,29.5
		c-18.7,3.2,0.1-38-0.4-40.3c0-0.1-8.4-0.5-9.1-0.7c-0.8,2.6-3.1,8.6-4.8,11.8H264.8z"/>
	<path class="st0" d="M340.4,59.1c1.1,12,2.2,37.8-12.1,42.8c-12.1,4.3-21.5-4.3-16.9-16c3.1-7.9,11.8-16.6,16.2-22.1
		c0-1-0.1-2.2-0.2-3.5c-4.3,6.1-9.5,11.2-15.1,11.4c-11.9,0.2-11.6-22.9-11.2-35c0.2-3.8,12.6-4.4,12.7-0.6c0.1,9-0.1,23.5,1.6,27.4
		c1.9,4.1,6.8-1,11.5-7.7c-0.8-8-1.9-18-2.3-23.5c-0.7-4.4,7.7-9.5,11.2-2.8c2.2,4,3.5,20.6,4,25.7c3.2-3.8,3.5-5.2,7.2-11.6h2.3
		C345.9,49.8,343.6,54.6,340.4,59.1z M328,68.3c-3.7,4.6-11,12.4-13.7,19.1c-2.8,7.1,1.7,13.6,7.9,7.7
		C329.1,88.8,328.5,76.8,328,68.3z"/>
	<path class="st0" d="M54,149.4c-2.3,12.5-15.7,28.7-29.3,32.6c-43.8,12.7-23.2-91.8,14-81.6c13.1,3.6,11.3,19.1-1.2,22.8
		c-2.6,0.8-4-2.9-0.8-4c8.6-3.1,10.4-15,1.9-13.2c-16.3,3.4-34.2,67.1-13.4,69.1C35,176,47.9,161.3,50,148.7
		C50.4,145.8,54.6,146.3,54,149.4z"/>
	<path class="st0" d="M107.7,153.9c-4.3,8.5-13.6,27.8-24.6,28.1c-14.6,0.4-5.3-31.7-12-36.2c-2.9-1.9-7.3,3.1-10.8,8
		c0,7.1-0.1,17-0.6,21.1c-0.5,4.7-13,4.4-12.5-0.4c1.4-13.6-2.2-53,2.8-63.2c4.1-8.3,16.6-6.2,20.3-0.7c5,7.3-6.5,29.6-10,37.2v1.4
		c3.1-4.1,7-7.4,11.5-7.9c19.4-2.6,11.5,25.9,14.4,32.4c3,6.6,13.9-10.7,19.2-19.8H107.7z M59.7,143.3c3.1-5.5,11.9-25.3,8.4-31.1
		c-1.6-2.5-4.7-3.5-6.5,1.6C59.4,120.2,59.5,136.2,59.7,143.3z"/>
	<path class="st0" d="M105.2,154.2c1.3-2.8,3.6-8.6,4.6-12.5c-3.1-1.2-6-3.5-6.1-6.5c-0.4-8.8,14.5-7.8,9.7,3.7
		c4.6,1.1,22.3-1,21.7,5c-1,8.4-15.6,35-9.5,33.4c7.6-2.2,14.4-13.2,20-23.4h2.3c-5.8,10.6-12.8,27.4-26.2,29.5
		c-18.7,3.2,0.1-38-0.4-40.3c0-0.1-8.4-0.5-9.1-0.7c-0.8,2.6-3.1,8.6-4.8,11.8H105.2z"/>
	<path class="st0" d="M143.3,132.3c0-3.1,2.9-5.8,6.5-5.8c3.5,0,6.5,2.6,6.5,5.8s-3,5.8-6.5,5.8
		C146.1,138.1,143.3,135.5,143.3,132.3z M179.1,153.9c-4.3,8.5-13.4,27.5-24.5,27.7c-11.9,0.4-11.6-25.9-11.2-38
		c0.1-3.8,12.6-4.4,12.7-0.5c0.1,8.9-0.1,26.5,1.6,30.2c3,6.6,13.8-10.3,19.1-19.4H179.1z"/>
	<path class="st0" d="M176.5,154.3c1.4-2.9,3.5-6.6,5.3-11.3c-1.7-4.1-3-6.6-4.1-10.7c-2.8-14.2,24.8-20.8,15.6,5.2
		c2.8,6.7,9.8,25.1,11.5,32.3c6-1,14.6-1.4,22.4-15.8h2.3c-7.1,15.1-13.9,18.2-23.9,20.3c1.4,9.4,0.7,22.9-8.6,26.4
		c-15.5,5.8-36-19.6-6.1-28.2c-1.3-6.1-5.3-20.5-7.7-26.6c-2.2,4.3-3.2,6.4-4.4,8.5H176.5z M191.7,176.5
		c-23.9,6.4-6.4,22.8-1.2,14.4C192.8,187.3,192.2,180.6,191.7,176.5z"/>
	<path class="st0" d="M265.2,153.9c-12.5,27-32.4,45.8-37.7,19.8c-2-10-2.3-30.1-2.2-49.1c-3.4,0.1-2.8,0-5.9,0.1
		c-1.9,0-1.3-3.4,0.1-3.5c3.1,0,2.4-0.1,5.8-0.1c0-1.8-0.2-4.4,0.7-6.4c2.9-5.6,15.6-8,15.6,0.7l-0.4,5.4c3.8-0.1,2.9,0,6.6-0.4
		c1.9-0.2,1.9,3.1,0.5,3.4c-3.8,0.5-2.9,0.4-7.1,0.5c-0.5,21.8-0.7,48,2.3,50.3c3.7,2.9,12.6-8.6,19.3-20.8H265.2z"/>
	<path class="st0" d="M338.8,153.9c-4.3,8.5-13.4,27.5-24.5,27.7c-15,0.4-9.1-33.6-11.4-41.5c-1.2-4.2-6.8,3.6-9.7,12.1
		c-1.4,4.3-1.3,8-1.8,11.2c-0.6,3.1-4.7,2.4-4.3-0.4c0.6-6.1,1.9-19.1-0.6-25c-2.8-6.4-11.5,16.2-12.6,18.4
		c0.1,5.6-0.1,16.4-0.2,18.1c-0.6,4.6-13,4.4-12.5-0.4c0.5-4.7-0.2-23.4-0.6-32.9c-0.1-4.9,12.6-3.7,12.8,0c0.1,2.4,0,4.3,0.1,8.2
		c1.4-4.1,8.3-20.3,14.6-15.7c3.7,2.8,3.5,12.6,3.6,15.4c5.5-16.3,15-19.8,20.2-13.9c7.9,9.2,1.3,28.9,5.5,38.2
		c3,6.6,13.8-10.3,19.1-19.4H338.8z"/>
	<path class="st0" d="M356.9,141.1c-9,2.5-14,20.8-7.3,24.6c6.2,3.6,10.2-6,10.6-10.7c0.6-7.4,17.6-14,13.6-3
		c-1.8,5.3-6.1,18.4-2.5,23.2c5.4,7,19.2-18.4,20.8-21.2h2.3c-5.3,9.7-15.1,31.9-28.3,27.1c-5.6-2-7.4-10.6-6.1-17.4
		c-2.8,5-7.6,6.6-13.1,6.2c-19.6-1.1-15.8-35,10.3-32.5c3.1,0.4,6.8,1.1,8.5,2.4c0.4,0.2-0.6,2.4-1.2,1.9
		C362.5,140.3,359.4,140.3,356.9,141.1z"/>
	<path class="st0" d="M391.8,154.3c1.4-2.9,3.5-6.6,5.3-11.3c-1.7-4.1-3-6.6-4.1-10.7c-2.8-14.2,24.8-20.8,15.6,5.2
		c2.8,6.7,9.8,25.1,11.5,32.3c6-1,14.6-1.4,22.4-15.8h2.3c-7.1,15.1-13.9,18.2-23.9,20.3c1.4,9.4,0.7,22.9-8.6,26.4
		c-15.5,5.8-36-19.6-6.1-28.2c-1.3-6.1-5.3-20.5-7.7-26.6c-2.2,4.3-3.2,6.4-4.4,8.5H391.8z M407,176.5c-23.9,6.4-6.4,22.8-1.2,14.4
		C408.1,187.3,407.5,180.6,407,176.5z"/>
</g>
</svg>
