<?xml version="1.0" encoding="utf-8"?>
<!-- Generator: Adobe Illustrator 21.0.0, SVG Export Plug-In . SVG Version: 6.00 Build 0)  -->
<svg version="1.1" xmlns="http://www.w3.org/2000/svg" xmlns:xlink="http://www.w3.org/1999/xlink" x="0px" y="0px"
	 viewBox="0 0 489.2 244.4" style="enable-background:new 0 0 489.2 244.4;" xml:space="preserve">
<style type="text/css">
	.st0{fill:#221F20;}
	.st1{fill:#E21061;}
</style>
<g id="Calque_2">
	<path class="st0" d="M207.2,113.9"/>
	<g>
		<path class="st0" d="M96.9,106.9c-6.8,0-11.4-5.2-11.4-15.2C85.5,73.2,127.4-1,134.3-1c29.4,0,8,52.6,8,52.6S180.9-1,200.3-1
			c5.9,0,14.3,8.2,12.2,10.2c-8.9,8.9-52.9,72-52.9,96.8c0,12.6,5,6.2,6.6,7.7c0.8,1-0.4,3.1-4.6,3.1c-9.2,0-11.2-6.5-11.2-15.5
			c0-21.1,18.5-58.6,33.1-81.8c-18,16.4-41.4,46.9-44.8,46.9c-2.9,0-8.2-5.4-8.2-7.4c0-6.1,12.7-35,8-40c-14.6,19.8-42,61.7-42,79.3
			c0,8.5,6.8,1.6,8.4,3C106.1,102.3,102.7,106.9,96.9,106.9z"/>
		<path class="st0" d="M196.4,92c-3.5,0-11.8-2.9-11.8-16c0-19.8,20.5-47.5,34.7-47.5c8.9,0,15.4,10.4,15.4,15.2
			c0,9.1-14.4,24.1-26.4,24.1c-3.4,0-5.4-2.2-6.4-4.6c-5.9,10.9-8,21.7-1.7,21.7c19.6,0,44.6-32.2,47.9-32.2
			C254.5,52.9,221.9,92,196.4,92z M204.8,58.4c7.3,0,25.4-16.6,20.8-16.6C218.6,41.8,210.7,49.5,204.8,58.4z"/>
		<path class="st0" d="M261.5,92c-0.1,0-0.2-0.1-0.4-0.1c-0.1,0.1-0.4,0.1-0.5,0.1c-3.2,0-8-3.1-8-11.8c0-6.7,4.9-17.4,12.6-33
			c0,0,2.9-6.4-10.9-3.8c-4.8,10.8-34.2,70-40.9,70c-6.8,0-14.2-10.3-8.4-10.3c10.3,0,39.8-52.7,43.9-61.8l-1.1-0.8
			c-6.2-6.1,2.2-25.3,10.2-25.3c11,0,15.1,7.2,12.4,7.2c-4.7,0-13.8,12.8-11,15.6c1.3,1.3,7.1-1.1,10-1.1c3.4,0,7.1,3,8.4,8
			c0.8,2.9,0.5,5.9,0,7.3c-3.5,10.4-16.7,32.2-11.5,32.6c5.4,0.4,29.5-31.9,31.6-31.9C302.1,52.9,276.5,92,261.5,92z"/>
		<path class="st0" d="M312.3,92c-0.1,0-0.2-0.1-0.4-0.1c-0.1,0.1-0.4,0.1-0.5,0.1c-3.2,0-8-3.1-8-11.8c0-6.7,4.9-17.4,12.6-33
			c0,0,2.9-6.4-10.9-3.8c-4.8,10.8-34.2,70-40.9,70c-6.8,0-14.2-10.3-8.4-10.3c10.3,0,39.8-52.7,43.9-61.8l-1.1-0.8
			c-6.2-6.1,2.2-25.3,10.2-25.3c11,0,15.1,7.2,12.4,7.2c-4.7,0-13.8,12.8-11,15.6c1.3,1.3,7.1-1.1,10-1.1c3.4,0,7.1,3,8.4,8
			c0.8,2.9,0.5,5.9,0,7.3C325,62.6,311.8,84.3,317,84.8c5.4,0.4,29.5-31.9,31.6-31.9C352.9,52.9,327.3,92,312.3,92z"/>
		<path class="st0" d="M394.6,36.4c0,1.4-34,98.5-64.9,98.5c-6.2,0-9.6-7.1-9.6-11.4c0-11.3,0.6,5.3,9.4,5.3
			c12.8,0,28.1-41.4,39.7-70.9c-10.1,15.7-23.4,34-31.7,34c-1.8,0-7.9-4.8-7.9-12.6c0-9.7,22.3-50.9,25.8-50.9
			c5.5,0,14.5,4.1,11.8,7.9c-5.9,7.9-26.3,40.9-26.3,43.4c0,10,24.7-25,36.8-42.2c2.6-5.6,4.8-9.1,6.5-9.1
			C389,28.4,394.6,33.3,394.6,36.4z"/>
		<path class="st0" d="M0,208c0-31.1,29.5-79.1,75.8-79.1c12.1,0,17.9,9,17.9,15.8c0,13.3-17.9,28.1-30.8,28.1
			c-8.4,0-9.8-4.7-9.8-7.9c0-5.4,3.4-7,5.3-5.2c0.8,0.8-1.8,0.4-1.8,1.9c0,0.4,0.2,0.7,0.8,0.7c9.6,0,30.2-25,19.3-25
			c-24.6,0-60.7,41.8-60.7,78c0,6.6,3.2,14.2,12,14.2c25.2,0,49.2-43.1,49.2-43.1s5.4-2.4,5.4,3.6c0,6.1-25.6,47.3-57.6,47.3
			C11.8,237.4,0,226.4,0,208z"/>
		<path class="st0" d="M119,221.5c-6,0-11.3-3.2-11.3-15.2c0-13.2,20-37.7,16.9-37.7c-10.2,0-42,40.4-42,48.4c0.7,3.7,3.7,1,3.7,2.9
			c0,1.3-2,1.7-4.2,1.7c-3.2,0-8.6-3-8.6-11.6c0-7.6,6.4-22.7,15.4-37.8c-2.3-0.2-8.8-7.1-1.2-7.1c2,0,4-0.1,5.9-0.2
			c3.7-5.9,7.8-11.5,12-16.6c9.4-11.4,19.2-19.7,26.6-19.7c6.8,0,9.6,4.8,9.6,8.4c0,5.8-14.8,20.6-31.3,29.2
			c-4.8,6.8-9.7,14.2-13.9,21c11.3-13.8,25.6-29,33.7-29c5.4,0,8.8,6.8,8.8,11.4c0,11.2-17.9,35.6-17.9,41.9
			c0,12,34.6-28.9,37.4-28.9C164.9,182.4,132.5,221.5,119,221.5z M118.3,155.3c11.8-8.2,17.8-18.4,17.5-18.4
			C133.2,136.9,126.4,144.6,118.3,155.3z"/>
		<path class="st0" d="M171.4,222c-0.1,0-0.2-0.1-0.4-0.1c-0.1,0.1-0.4,0.1-0.5,0.1c-3.2,0-8-3.1-8-11.8c0-6.7,4.9-17.4,12.6-33
			c0,0,2.9-6.4-10.9-3.8c-4.8,10.8-34.2,70-40.9,70c-6.8,0-14.2-10.3-8.4-10.3c10.3,0,39.8-52.7,43.9-61.8l-1.1-0.8
			c-6.2-6.1,2.2-25.3,10.2-25.3c11,0,15.1,7.2,12.4,7.2c-4.7,0-13.8,12.8-11,15.6c1.3,1.3,7.1-1.1,10-1.1c3.4,0,7.1,3,8.4,8
			c0.8,2.9,0.5,5.9,0,7.3c-3.5,10.4-16.7,32.2-11.5,32.6c5.4,0.4,29.5-31.9,31.6-31.9C211.9,182.9,186.4,222,171.4,222z"/>
		<path class="st0" d="M195.6,222.1c-26.4,0,13.8-61,17.4-62.9c4-2.3,10.2,4.9,10.2,7.9c0,1.4-29.4,47.8-23.9,47.8
			c5.4,0,29.2-31.7,31.2-31.7C234.8,183.2,210.5,222.1,195.6,222.1z M230.6,153.5c0,3.2-9.5-0.2-9.5-7.2c0-7.9,5.4-16.6,10.4-16.6
			c2.2,0,7.4,2.5,10.9,6.1C247.7,140.9,230.6,146,230.6,153.5z"/>
		<path class="st0" d="M241.2,206.3c1.4,5.3,2.8,10.6,2.8,15.4c0,6.8-7.2,16.4-20.9,16.4c-11.4,0-15.6-7.7-15.6-10.1
			c0-5,11.2-14.2,24.2-22.9c-2-7.2-5.5-17.3-5.6-25.6c-0.2-14.3,15.5-21.4,21.2-21.4s12.5,5.5,12.5,9.4c0,7.9-4.6,8.9-4.6,8.9
			s0-7-1.9-7s-17.2,4.2-17.2,13.8c0,5.3,1.6,11,3.2,16.9c15.4-9.6,28.8-17.2,31.9-17.2C274.8,183,258.5,194.5,241.2,206.3z
			 M234,215.8c0-1.2-0.2-2.6-0.6-4.3c-11.4,8-20.4,14.9-18.7,16.6C219.5,232.8,234,224.2,234,215.8z"/>
		<path class="st0" d="M300.2,153.4c-19.4,24.8-40.4,61.3-35.3,61.3c5.8,0,29.6-32.6,31.9-32.6c5.3,0-21.7,40-34.3,40
			c-3.2,0-8.6-3-8.6-11.6c0-9.5,14.2-36.8,26.9-57.2h-0.5c-24.5,0-24.2,3.1-23.2,4c0.8,0.6,1.8,0,2.2,0.4c2.3,1.8-10,2.4-10.4-3.6
			c-0.7-10.2,14.3-10,21.4-10c3.1,0,9,0.4,16.1,0.6h0.1c6.2-9.1,11.5-15.5,13.7-15.5c5.9,0,14.4,8.3,12.4,10.3
			c-1.6,1.7-3.2,3.5-4.9,5.4c8.9-0.2,16.6-1.1,19.2-3.4c1.7-1.4-1-2-1-2.6c0-1.1,7.8-1.3,8.2,4.8C334.7,154.4,326.5,154,300.2,153.4
			z"/>
		<path class="st0" d="M358.7,221.9c-2.2,0-10.8-3.8-10.8-10.6c0-10.9,19.3-42.8,19.3-42.8s-23.4,14-39,51.8
			c-0.5,1.1-0.7,1.6-1.2,1.6c-2.2,0-9.6-3.8-9.6-10.6c0-10.9,17.6-42.6,17.6-42.6s-38.8,34.9-43.7,52.2c0,0.2,0,0.4,0,0.6
			c-0.1,0.2-0.2,0.4-0.6,0.4c-1.9,0-7.9-4.7-7.9-12.5c0-9.7,22.3-50.9,25.7-50.9c5.5,0,14.5,4,11.8,7.9
			c-3.6,4.9-10.4,15.7-16.6,26.2c11.8-14.2,29.8-34.1,37.1-34.1c7.3,0,8.3,9.5,6.7,15.6c-0.8,3.1-2.8,7-4.1,9.5
			c10.1-12.2,22.3-25.1,29-25.1c4,0,8.3,4,8.3,12c0,9-18.2,38.6-18.2,43c0,3.8,34.6-30.6,37.8-30.6
			C404.3,182.9,369,221.9,358.7,221.9z"/>
		<path class="st0" d="M416.2,222c-12.7,0-7.3-20.5-7.3-20.5S394.7,222,389.2,222c-3.5,0-11.8-2.9-11.8-16
			c0-19.9,20.5-47.5,34.7-47.5c8.9,0,12.4,14.9,10.3,16.9c-2,2-1.4-3.7-4.1-3.7c-16.6,0-33.6,40.4-27.8,40.4
			c6.4,0,30.1-34.6,30.1-34.6s10.4,3,10.4,8c0,3-15.6,29.2-10.2,29.2s29.5-31.9,31.6-31.9C456.7,182.9,431.2,222,416.2,222z"/>
		<path class="st0" d="M458.6,206.3c1.4,5.3,2.8,10.6,2.8,15.4c0,6.8-7.2,16.4-20.9,16.4c-11.4,0-15.6-7.7-15.6-10.1
			c0-5,11.2-14.2,24.2-22.9c-2-7.2-5.5-17.3-5.6-25.6c-0.2-14.3,15.5-21.4,21.2-21.4s12.5,5.5,12.5,9.4c0,7.9-4.6,8.9-4.6,8.9
			s0-7-1.9-7s-17.2,4.2-17.2,13.8c0,5.3,1.6,11,3.2,16.9c15.4-9.6,28.8-17.2,31.9-17.2C492.2,183,475.9,194.5,458.6,206.3z
			 M451.4,215.8c0-1.2-0.2-2.6-0.6-4.3c-11.4,8-20.4,14.9-18.7,16.6C436.9,232.8,451.4,224.2,451.4,215.8z"/>
	</g>
</g>
<g id="Calque_3">
	<g>
		<g>
			<path class="st1" d="M98.9,94.8c1.8-0.8,0.2-1.9,0.3-4.2c0.2-4.4,2.5-9.1,4.1-13.2c3.2-8.3,6.9-16.4,11-24.3
				c4.2-8.1,8.8-15.9,13.9-23.4c4.5-6.7,9.6-15.6,16.7-19.8c-1.5,0.4-3,0.8-4.5,1.2c0.5,0,0.9-0.1,1.4-0.1c-1.5-0.4-3-0.8-4.5-1.2
				c0.3,0.2,0.5,0.3,0.8,0.5c-1.1-1.1-2.2-2.2-3.2-3.2c5,6.5,1.4,19-0.1,26.1c-2.3,10.4-5,21-3.8,31.7c0.7,6.9,9.9,13,15.4,6.4
				c9.7-11.7,20.2-22.5,30.8-33.5c8.5-8.7,16.8-18.1,28.7-22c-3.4-4.4-6.8-8.8-10.2-13.2c-10.7,22.5-27.5,41.5-37.1,64.5
				c-2.4,5.6-4,11.5-5.9,17.3c-2,6-4.6,11.9-4.6,18.3c0.1,14.2,11.6,25.2,25.9,22.6c4.8-0.9,7.5-6.7,6.3-11.1
				c-1.4-5-6.3-7.2-11.1-6.3c-2.3,0.4-3.1-3.9-3.1-5.2c-0.1-4.5,2.5-9.3,3.9-13.5c3.2-9.3,6-18.1,10.7-26.7
				C190,45,202.4,29.4,211,11.5c3.1-6.6-2.1-15.9-10.2-13.2c-14,4.6-24.4,14-34.5,24.3c-11.3,11.7-22.6,23.2-33,35.7
				c5.1,2.1,10.2,4.2,15.4,6.4c-1.5-14.5,4.5-28.3,5.9-42.6c0.7-7.3,0-14.8-2.9-21.6c-4-9.4-13.4-8.9-20.4-3.1
				c-11.6,9.6-20.1,24.4-27.5,37.3c-8,13.8-14.8,28.5-20,43.7c-3,8.7-4.2,18.6,1.8,26.3c5.6,7.2,14.3,9.2,22.5,5.6
				c4.4-2,5.5-8.5,3.2-12.3C108.5,93.4,103.3,92.8,98.9,94.8L98.9,94.8z"/>
		</g>
	</g>
	<g>
		<g>
			<path class="st1" d="M194.9,70.6c15.8,3.2,32.5-3.2,40.2-17.9c3.4-6.5,6.4-16.6,3-23.6c-3.8-8-14.3-8.7-22-7.2
				c-16.6,3-24,18.5-27.7,33.3c-2,8.1-5.3,17.6-3.7,26c1.6,8.3,8.6,13.7,16.8,14.3c9.4,0.6,17-5.6,24-10.9c8-6,15.8-12.2,22.4-19.8
				c7.6-8.7-5.1-21.5-12.7-12.7c-6.2,7.1-13.4,13-20.9,18.5c-3.3,2.4-7.1,6.1-11.2,6.9c-0.4,0.1-0.8,0.1-1.2,0
				c0.7,0.4,0.4-1.9,0.6-2.9c1.3-8.4,3.1-17.8,6.7-25.5c1.5-3.1,3.4-6.2,6.4-8c1.5-0.9,3.1-1.4,4.8-1.7c0.8-0.1,1.5,0,2.3-0.1
				c1.6-0.1,2.3,1.3,0.8-0.3c-0.8-1.3-1.5-2.6-2.3-4c1.5,4-2.4,11.1-5.9,14.2c-4.3,3.7-10.2,5.2-15.7,4.1
				C188.4,50.9,183.6,68.3,194.9,70.6L194.9,70.6z"/>
		</g>
	</g>
	<g>
		<g>
			<path class="st1" d="M210.1,117.3c7.4-2.9,11.2-8.6,15.6-15c4.4-6.4,8.6-12.9,12.7-19.4c8.3-13.5,15.8-27.3,22.7-41.6
				c2.1-4.4,1.2-9.7-3.2-12.3c-3.9-2.3-10.2-1.2-12.3,3.2c-6,12.6-12.6,24.9-19.8,36.8c-3.5,5.8-7.1,11.6-10.9,17.3
				c-1.9,2.8-3.8,5.7-5.7,8.5c-0.8,1.1-1.5,2.4-2.4,3.4c-0.4,0.5-2.8,2.3-1.4,1.7c-4.5,1.8-7.7,6-6.3,11.1
				C200.3,115.4,205.6,119.1,210.1,117.3L210.1,117.3z"/>
		</g>
	</g>
	<g>
		<g>
			<path class="st1" d="M257.8,13.9c-5.3,7.1-12.8,18-12,27.3c1.1,13.6,18.3,10.5,27.2,8.2c-3.8-2.9-7.6-5.8-11.4-8.7
				c0.4,7.5-5,14.1-7.9,20.7c-3.4,7.9-5.9,19.2-2.3,27.5c4.1,9.5,15.8,10.1,23.7,5.2c7.4-4.5,10.5-12.4,16.4-18.3
				c8.2-8.2-4.5-20.9-12.7-12.7c-3.3,3.3-5.8,7.2-8.5,10.9c-1,1.4-2,2.8-3.3,3.9c-0.6,0.5-1.2,1-1.9,1.2c-0.9,0.3,1.9,1-1.2-0.2
				c1.3,0.8,2.6,1.5,4,2.3c0.3,1.9,0.3,1.8,0.1-0.3c0-1.1,0-2.3,0-3.4c0.1-1.5,0.3-2.8,0.7-4.3c0.9-3.6,2.5-6.7,4.2-10
				c3.7-7.1,7.2-14.3,6.8-22.5c-0.3-5.9-5.5-10.2-11.4-8.7c-2.7,0.7-8,2.2-10.3,1.3c1.3,0.8,2.6,1.5,4,2.3c-0.2-0.3-0.5-0.6-0.7-0.9
				c0.8,1.3,1.5,2.6,2.3,4c0.5,2.8,0.9-0.4,1.3-1.4c0.8-1.8,1.7-3.6,2.6-5.3c1.8-3.2,3.8-6.2,6-9.2c2.9-3.9,0.6-10.1-3.2-12.3
				C265.5,8,260.7,10,257.8,13.9L257.8,13.9z"/>
		</g>
	</g>
	<g>
		<g>
			<path class="st1" d="M258.3,119.3c9.9,0.4,16.5-7.3,20.7-15.3c5-9.7,9.8-19.5,14.7-29.2c9.6-19.1,20.3-38.1,26.1-58.9
				C323,4.8,305.7,0,302.5,11.2c-4.9,17.4-13.6,33.3-21.7,49.4c-4,8-8.1,16.1-12.1,24.1c-1.9,3.9-3.8,7.8-5.9,11.6
				c-0.8,1.5-1.7,2.8-2.7,4.1c-0.3,0.5-0.8,0.9-1.3,1.2c1.3-0.1,1.2-0.2-0.5-0.2C246.8,100.8,246.8,118.8,258.3,119.3L258.3,119.3z"
				/>
		</g>
	</g>
	<g>
		<g>
			<path class="st1" d="M299.2,51c6.6-0.2,13.5-0.5,20,0.3c-1.5-0.4-3-0.8-4.5-1.2c0.3,0.1,0.5,0.3,0.8,0.4
				c-1.4-1.8-2.8-3.6-4.1-5.4c2.3,5.9-2.8,12.2-5.2,17.3c-3.3,7-5.8,15.1-5.6,23c0.2,8.5,6.8,13.4,15,12.6c7.7-0.8,13.5-6.1,16-13.3
				c3.8-11-13.6-15.7-17.4-4.8c-0.4,1.1-0.9-0.3,0.6,0.5c1.1,1.1,2.2,2.2,3.2,3.2c-0.2-0.4-0.4-0.9-0.6-1.3c0.4,1.5,0.8,3,1.2,4.5
				c-0.8-13.8,10.1-23.7,11.2-37c0.6-7.1-1.4-14.9-9.4-16.4c-6.8-1.3-14.3-0.7-21.2-0.5C287.6,33.3,287.6,51.3,299.2,51L299.2,51z"
				/>
		</g>
	</g>
	<g>
		<g>
			<path class="st1" d="M350,32.7c-8.9,16.9-21.9,33-20.1,53.2c0.6,6.2,5.3,9.8,11.4,8.7c13.8-2.4,23.1-13.8,31.2-24.3
				c9.4-12,17.9-24.6,25.5-37.8c-5.5-2.3-11-4.6-16.4-6.9c-7.2,21-17.4,41-26.8,61.1c-4.2,8.9-8.5,17.8-14.1,25.9
				c-1.3,1.9-2.7,3.7-4.2,5.5c-1.3,1.5-3.5,3.1-4.4,4.8c-0.3,0.6-1.2,0.7-0.3,0.6c1-0.1-0.4-0.3-0.8-0.7c-1.7-1.8-3.3-3.4-4.8-5.3
				c-3-3.8-9.6-3.1-12.7,0c-3.8,3.8-3,8.9,0,12.7c8.3,10.7,21.2,15.5,31.9,5c8.7-8.6,15.2-19.4,20.6-30.3c6-11.8,11.3-24,16.9-36
				c5.9-12.6,11.6-25.4,16.2-38.6c3.3-9.8-11.4-15.7-16.4-6.9c-6.6,11.5-13.9,22.6-21.9,33.1c-6.2,8.2-13.3,18.8-24.1,20.7
				c3.8,2.9,7.6,5.8,11.4,8.7c-1.5-16.7,10.3-30.2,17.7-44.2C371,31.5,355.4,22.4,350,32.7L350,32.7z"/>
		</g>
	</g>
	<g>
		<g>
			<path class="st1" d="M57.2,179.6c10.3-0.1,20.3-4.7,26.9-12.7c6.9-8.4,11-20.9,5.9-31.2c-10.6-21.8-41.7-7.4-55,3.3
				C18.6,152.2,6,172.8,0.4,193c-3,11-4.2,23.7,0.8,34.3c2.2,4.7,6,8.9,10.7,11.4c5.8,3.2,11.6,2.6,17.9,2.2
				c6.3-0.4,12.5-0.5,18.5-2.8c5.9-2.2,11.1-5.5,15.8-9.6c10.1-8.6,16.5-20.6,22.5-32.2c5.3-10.3-10.2-19.4-15.5-9.1
				c-6.6,12.7-14,28.2-28.3,33.8c-3.4,1.3-6.8,1.6-10.4,1.8c-3.3,0.1-8.3,1.6-11.5,0.4c-6.2-2.4-5.5-12.6-4.8-17.7
				c1.8-14.6,9.8-29.5,18.9-40.9c8.1-10.2,19.5-20.2,32.9-21.9c1.9-0.2,4.9-0.7,6.1,1.1c1.4,2-0.4,6.4-1.3,8.2
				c-2.9,5.8-9,9.6-15.5,9.7C45.6,161.7,45.6,179.7,57.2,179.6L57.2,179.6z"/>
		</g>
	</g>
	<g>
		<g>
			<path class="st1" d="M100.8,175.3c10.6-3.1,20.3-8,29-14.9c9-7.1,16.7-15.8,14.5-27.9c-0.5-3-3.5-5.5-6.3-6.3
				c-10.4-2.9-20.3,4.8-28.2,10.7c-8.5,6.4-15.6,14-20.9,23.2c-5,8.8-8.6,18.4-12.1,27.9c-4,10.9-6.9,22-4,33.5
				c5.8-1.6,11.6-3.2,17.4-4.8c-2-6.4,3.3-12.9,6.9-17.7c4.4-5.9,9.4-11.3,14.9-16.2c5.3-4.8,10.9-8.1,17-11.6
				c0.5-0.1,1.1-0.3,1.6-0.4c-3.3-4.9-4.8-5.7-4.4-2.4c-0.4,0.7-0.6,1.6-1,2.3c-1.6,3-4.1,5.4-6.3,8c-9.6,11.2-18,26-14.7,41.3
				c1.6,7.4,8.3,13.1,16.1,10.5c7.5-2.4,13.8-10.6,18.1-16.8c6.6-9.6-9-18.6-15.5-9.1c-1.8,2.7-5.3,7.9-8.6,8.8c1.6,0,3.2,0,4.8,0
				c2.5,3.1,3.4,3.9,2.7,2.5c-0.1-0.8-0.1-1.6-0.1-2.4c0-1.6,0.1-3.2,0.5-4.8c0.7-3,1.8-5.8,3.3-8.5c3.5-6.2,8.5-11.1,12.8-16.7
				c4.4-5.9,7.3-13.1,5.6-20.6c-2.1-9-10.6-11.3-18.7-9.4c-7.6,1.8-14,6.9-20,11.6c-5.7,4.5-11,9.5-15.8,15
				c-9.6,11-21.2,25.7-16.4,41.3c3.4,11.1,20.1,6.5,17.4-4.8c-1.9-7.9,1-15.8,3.7-23.1c2.7-7.3,5.4-14.6,9-21.5
				c3.6-6.9,8-12.9,14-18c2.8-2.4,5.8-4.5,9-6.5c1.4-0.9,2.8-1.8,4.3-2.7c0.9-0.6,1.8-1.1,2.8-1.5c0.9-0.3,1-0.3,0.4,0.1
				c-2.1-2.1-4.2-4.2-6.3-6.3c0.2,1.1-3,4.4-4.2,5.6c-2.4,2.3-5,4.5-7.9,6.3c-5.9,3.9-12.1,6.8-18.8,8.7
				C84.9,161.1,89.6,178.5,100.8,175.3L100.8,175.3z"/>
		</g>
	</g>
	<g>
		<g>
			<path class="st1" d="M128.4,241.2c20.8-27,47.6-55.5,47.5-91.8c0-7.8-9.8-11.8-15.4-6.4c-9.1,9-9.3,24,0.7,32.4
				c4.2,3.6,9.7,5.4,15.2,5.5c0.4,0,1.1,0.5,1.5,0.3c-1.7-5.6-2.9-7.1-3.6-4.5c-0.2,0.7-0.5,1.4-0.7,2.1c-0.9,2.2-2.2,4.4-3.4,6.5
				c-5.4,9.7-11.5,20-9.1,31.6c1.3,6.5,6.4,11.6,13.4,11.5c6.5-0.1,13.6-3.2,19.7-5.3c10.9-3.8,6.2-21.2-4.8-17.4
				c-4.8,1.7-11.5,4.9-16.6,4.5c1.5,0.4,3,0.8,4.5,1.2c2.6,1.4,0.9,2.7,1.3-1.1c0.2-1.5,0.6-3,1.1-4.4c1.1-2.9,2.7-5.6,4.2-8.3
				c3.5-6.3,8.6-13.7,8.6-21.2c0-9.1-7.8-12.6-15.6-13.5c-4-0.4-7.7-3.3-3.7-7.2c-5.1-2.1-10.2-4.2-15.4-6.4
				c0,15.7-6.6,29.8-15.1,42.7c-9.1,13.9-19.8,26.8-30,40c-3,3.9-0.6,10.1,3.2,12.3C120.8,247.1,125.5,245.1,128.4,241.2
				L128.4,241.2z"/>
		</g>
	</g>
	<g>
		<g>
			<path class="st1" d="M210.4,157.7c-17.1,13.9-26.4,37.9-22.1,59.7c1.2,6.2,5.6,11.8,12.3,12.1c6.4,0.3,11.2-3.6,15.5-7.8
				c4.1-4.1,7.9-8.5,10.5-13.7c1.8-3.7,3.2-9.8,6.7-12.4c3.9-2.9,5.9-7.8,3.2-12.3c-2.2-3.8-8.4-6.1-12.3-3.2
				c-6.3,4.7-9.2,10.5-12.5,17.5c-1.5,3.1-3.1,5.9-5.5,8.4c-1.1,1.2-2.2,2.3-3.4,3.5c-0.7,0.7-1.5,1.4-2.2,2.1
				c-0.8,0.5-0.8,0.4,0.1-0.1c1.5,0.4,3,0.8,4.5,1.2c1.1,0.5,0.6,2.2,0.5-0.1c0-0.9-0.2-1.9-0.2-2.8c-0.1-2.3-0.1-4.5,0-6.8
				c0.3-4.2,1.4-8.4,2.8-12.3c2.9-8.1,8.3-14.9,14.9-20.3c3.8-3.1,3.2-9.5,0-12.7C219.4,154,214.2,154.6,210.4,157.7L210.4,157.7z"
				/>
		</g>
	</g>
	<g>
		<g>
			<path class="st1" d="M227.5,128.7c-6.9,6-10.5,14.3-11.4,23.2c-0.5,4.8,4.5,9,9,9c5.3,0,8.5-4.1,9-9c-0.1,0.7-0.1,0.5,0.1-0.7
				c0.1-0.7,0.3-1.3,0.5-2c0.4-1.5,0.5-1.6,1.1-2.6c1.3-2.4,2.2-3.4,4.4-5.3c3.7-3.2,3.3-9.5,0-12.7
				C236.6,125.1,231.2,125.5,227.5,128.7L227.5,128.7z"/>
		</g>
	</g>
	<g>
		<g>
			<path class="st1" d="M263.5,177.7c3.8-17.8-19.5-27.3-33-18.6c-7.3,4.7-8.5,13.4-8.5,21.4c0,8.7,2.3,16.9,4.6,25.2
				c1.7,6,4,13.7-0.6,19c-0.8,0.9-1.7,1.6-2.8,2.2c-0.1,0.1-3.9,1.5-3.7,1.1c0.6,0.2,1.1,0.6,1.3,1.2c0.5,1.2,0.8,1.3,0.7,0.5
				c0.5-0.3,1.7-3.1,2.3-3.7c5.2-5.8,13-10,19.4-14.4c7.4-5.2,14.8-10.5,22.2-15.7c4-2.8,5.8-7.9,3.2-12.3c-2.3-3.9-8.3-6-12.3-3.2
				c-7.9,5.6-15.9,11.2-23.8,16.8c-7.1,5-15.4,9.7-21.4,16.1c-5.4,5.9-9.3,14.1-6.8,22.1c3,9.4,13.2,12.1,21.8,9.7
				c7.9-2.2,14.6-8.2,17.9-15.6c3.6-8,2.9-16.8,0.9-25.1c-2.1-8.6-5.2-16.6-4.8-25.6c0-0.9,0.9-3.8,0.5-4.6c0.3-0.8,0.2-0.9-0.2,0
				c-1,0.6-0.8,0.6,0.7,0.1c1.3,0.1,2.6,0,3.9,0.2c2.7,0.5,0.7,1,1.2-1.4C243.7,184.2,261,189,263.5,177.7L263.5,177.7z"/>
		</g>
	</g>
	<g>
		<g>
			<path class="st1" d="M294.8,131.6c-12.1,10.7-21,24.3-28.1,38.6c-3.5,6.9-6.6,14-9.7,21c-3.6,8.4-7.3,16.7-6.8,26.1
				c0.2,4.3,2.7,7.3,6.6,8.7c13.4,4.9,23.7-5.3,31-15.1c2.9-3.9,0.6-10.1-3.2-12.3c-4.6-2.7-9.4-0.7-12.3,3.2
				c-2.5,3.4-5.9,8.5-10.7,6.8c2.2,2.9,4.4,5.8,6.6,8.7c-0.4-7.2,2.9-13.6,5.7-20c2.9-6.6,5.8-13.1,9.1-19.5
				c6.4-12.5,14-24.1,24.6-33.5C316.3,136.6,303.5,123.9,294.8,131.6L294.8,131.6z"/>
		</g>
	</g>
	<g>
		<g>
			<path class="st1" d="M299.9,157.9c-9.9,17.9-16.6,37.4-19.6,57.6c-0.7,4.4,0.7,8.8,5.2,10.6c3.9,1.6,9.2,0.4,11.2-3.7
				c5.4-11.1,12.2-21.5,20.6-30.6c4.2-4.5,8.6-8.8,13.3-12.7c2.3-1.9,4.7-3.7,7.1-5.4c1.1-0.8,2.2-1.5,3.3-2.2
				c0.7-0.4,1.3-0.9,2-1.3c1.4-0.8,1.5-0.9,0.2-0.2c-1.5-0.4-3-0.8-4.5-1.2c-1.2-3.4-1.9-4.3-2.1-2.6c-0.2,1.1-0.4,2.2-0.6,3.3
				c-0.5,2.2-1,4.4-1.7,6.6c-1.3,4.2-2.8,8.3-4.7,12.3c-4,8.3-8.9,16-14.4,23.4c5.5,2.3,11,4.6,16.4,6.9c4-10.1,9.9-19.3,17.3-27.2
				c4.2-4.4,8.9-8.3,13.2-12.6c3.4-3.5,6.7-7.7,11.8-8.4c-1.6,0-3.2,0-4.8,0c0.4,0.1,0.7,0.1,1.1,0.2c-1.3-0.8-2.6-1.5-4-2.3
				c0.3,0.3,0.6,0.5,0.8,0.8c-0.8-1.3-1.5-2.6-2.3-4c0.2-1.6,0.1-1.5-0.4,0.3c-0.3,1-0.6,1.9-1,2.9c-0.7,1.6-1.5,3.2-2.3,4.8
				c-1.9,3.7-3.9,7.2-5.8,10.9c-4,7.6-7.3,15.6-7.6,24.3c-0.3,9.6,5.7,18.1,16,17.5c9.6-0.5,17.1-9.4,23.2-15.9
				c7.9-8.5-4.8-21.2-12.7-12.7c-2.8,3-5.7,6.1-9,8.8c-0.6,0.6-1.2,1.1-1.9,1.5c-0.9,0.3-0.9,0.4-0.3,0.4c1.1,0,2,0.7,2.6,2
				c0.3-0.5,0.3-1,0.1-1.6c1-6.1,2.9-11.1,5.8-16.5c3.5-6.6,7.2-13,9.7-20c2.7-7.6,1.4-17.9-8.6-18.8c-7.5-0.7-14.5,4.5-19.6,9.5
				c-5.2,5-10.7,9.9-15.7,15.2c-10.2,10.6-17.6,22.7-23.1,36.4c-1.6,4.1,1.5,9.1,5.2,10.6c4.5,1.8,8.5,0,11.2-3.7
				c8.7-11.6,16-24.4,20.4-38.3c2-6.2,5-15,3-21.5c-2.5-8.3-11.2-10.7-18.5-7.2c-11.7,5.7-22.5,15.9-31.2,25.4
				c-9.4,10.2-17.3,21.8-23.4,34.2c5.5,2.3,11,4.6,16.4,6.9c2.8-18.7,8.7-36.7,17.8-53.3C321,156.9,305.5,147.8,299.9,157.9
				L299.9,157.9z"/>
		</g>
	</g>
	<g>
		<g>
			<path class="st1" d="M420.6,162.2c-13.2-4.2-28,1.1-36.8,11.5c-9.2,10.8-12.8,26.2-11.7,40.2c0.6,8.5,6.9,13,15.2,12
				c6.8-0.8,13.2-4.5,18.7-8.5c11.3-8.1,20.5-18.9,26.2-31.6c-5.5-2.3-11-4.6-16.4-6.9c-2.5,7.7-6.1,14.8-7,22.9
				c-0.8,7.9,1.5,17.8,8.7,22.2c16,9.7,29.5-14.7,35.1-26c5.1-10.3-10.4-19.5-15.5-9.1c-2,3.9-3.9,7.9-6.3,11.6
				c-1.1,1.7-2.3,3.3-3.8,4.8c-0.6,0.6-1.9,1.3-2.2,2.1c-0.2,0.1-0.4,0.3-0.6,0.4c3,2,4.1,2.4,3.2,1.1c0.2-1-0.8-3.4-0.7-4.7
				c0.1-2.1,0.6-4.1,1.2-6.1c1.5-4.9,3.7-9.5,5.3-14.3c3.1-9.5-12.2-16.3-16.4-6.9c-3.4,7.6-7.9,14.4-13.9,20.2
				c-2.8,2.7-5.8,5.1-9,7.2c-2.2,1.4-7,4.6-8.9,4c1.3,0.8,2.6,1.5,4,2.3c-0.3-0.2-0.5-0.5-0.8-0.7c0.8,1.3,1.5,2.6,2.3,4
				c-1-2.5-0.2-9,0.4-12.6c0.8-4.7,2.3-9.4,5-13.4c4.4-6.6,12.4-10.6,20.1-8.1C426.9,183.1,431.6,165.7,420.6,162.2L420.6,162.2z"/>
		</g>
	</g>
	<g>
		<g>
			<path class="st1" d="M481.7,177.7c3.2-8.7-2.5-18.5-11.1-21.3c-8.6-2.8-17.8,1.6-22.9,8.6c-5.1,7-6.9,16.5-6.7,25.1
				c0.2,9.6,4.5,18.1,5.5,27.5c0.5,4.5-0.6,11.5-6.7,10.1c0.2,0.1-3.4-0.9-2.7-1.5c0.1,1.6,0.2,3.2,0.2,4.8c0.7-0.8,1.4-1.5,2.1-2.2
				c3.3-3.3,6.6-6.5,10.1-9.6c13.3-11.9,28.1-22,43.8-30.4c10.2-5.5,1.1-21-9.1-15.5c-13,7-25.2,15.1-36.8,24.3
				c-5.7,4.5-11.2,9.3-16.4,14.3c-5,4.8-11.3,10-11.1,17.5c0.4,15.4,21.6,19.6,32.6,13.5c14-7.8,13.1-25.1,9.3-38.4
				c-2.2-7.7-4-15.1-2-23.1c0.7-2.9,1.6-5.4,4-7.3c-0.1,0.1,1.1-0.4,1.1-0.4c0.5-0.6-0.4,0.3-0.3-0.2c-0.2,0.6,0.6-3.5-0.5-0.5
				c-1.7,4.6,1.9,9.9,6.3,11.1C475.6,185.4,480.1,182.3,481.7,177.7L481.7,177.7z"/>
		</g>
	</g>
	<g>
		<g>
			<path class="st1" d="M264.5,153.5c0.6,1.2,0.5,2.2-0.2,3.1c-0.7,0.7-0.7,0.9,0,0.6c-0.3-0.2,4.4-0.6,3.8-0.6
				c3.5-0.3,7.1-0.3,10.6-0.3c7.4,0,14.8,0.5,22.3,0.5c13.3-0.1,26.5-2,38.2-8.5c10.1-5.6,1.1-21.2-9.1-15.5
				c-14.7,8.2-32.3,5.9-48.5,5.6c-8.2-0.1-18.1-0.8-25.7,2.9c-7.9,3.9-11.9,13.5-7,21.4C255,172.4,270.5,163.4,264.5,153.5
				L264.5,153.5z"/>
		</g>
	</g>
</g>
</svg>
