<?xml version="1.0" encoding="utf-8"?>
<!-- Generator: Adobe Illustrator 21.0.0, SVG Export Plug-In . SVG Version: 6.00 Build 0)  -->
<svg version="1.1" id="Capa_1" xmlns="http://www.w3.org/2000/svg" xmlns:xlink="http://www.w3.org/1999/xlink" x="0px" y="0px"
	 viewBox="0 0 492 492" style="enable-background:new 0 0 492 492;" xml:space="preserve">
<style type="text/css">
	.st0{fill:#010002;}
	.st1{fill:#FFFFFF;}
</style>
<g>
	<path class="st0" d="M459.8,122l-22.1-12.8L378,141.7l-0.4-43l-16.1-8.8L346.6,99l0.6,67l-40.8,21.4l-41.7,27.4l0.5-50l-0.4-43
		l61.7-31.6l-0.2-21l-22.1-11.8l-39.8,21.4l-0.6-65L243.7,0l-19.9,14.2l0.6,65l-35.2-20.7l-16.9,11.2l0.2,23l52.3,29.5l0.4,43
		l3.5,50l-44.3-26.6l-38.2-21.6l0.4-63l-20.1-11.8l-14.9,12.1l0.4,41l-58.3-31.5L29.8,125l0.2,26l57.3,30.5l-36.8,21.3l0.2,23
		l21.1,9.8l52.7-31.5l37.2,20.6l49.2,22.5l-47.8,22.5l1,0l-36.8,22.3l-54.3-31.5l-21.9,12.2l0.2,24l38.2,17.6L32,348l0.2,26
		l25.1,9.8l56.7-32.5l0.4,41l14.1,10.9l16.9-12.2l-0.6-62l40.8-21.4l44.7-30.4l-3.5,50l0.4,43l-51.7,30.5l0.2,23l17.1,10.8
		l34.8-21.3l0.6,65l20.1,13.8l19.9-14.2l-0.6-65l35.2,20.7l16.9-9.2l-0.2-25l-52.3-29.5l-0.4-43l-0.5-50l41.3,30.6l41.2,21.6l0.6,62
		l16.1,10.8l14.9-11.1l-0.4-41l56.3,30.5l25.9-11.2l-0.2-25l-54.3-32.5l33.8-19.3l-0.2-22l-19.1-11.8l-54.7,30.5l-39.2-19.6
		L282,246.7l47.8-22.5l36.8-24.3l55.3,31.5l18.9-10.2l-0.2-23l-36.2-19.7l55.7-32.5L459.8,122z M266.3,276.8l-36,0.3L211,247.3
		l17.7-32.2l36-0.3l17.3,31.8L266.3,276.8z"/>
	<path class="st1" d="M248.4,505.4L217.2,484l-0.5-51.3l-24.1,14.8l-27.9-17.7l-0.3-35.3l51.7-30.5l-0.4-37.1l2-27.8l-26.5,18
		l-35.4,18.6l0.6,61l-28.2,20.3l-24.8-19.1l-0.3-27.6l-45,25.8l-36.9-14.4l-0.4-39.8l44.9-26.1l-25.3-11.7l-0.4-37.5L73.2,248
		l49.5,28.7l62.2-29.2l-28-12.8l-32-17.8l-52.3,31.2l-32.7-15.2l-0.3-36.3l25.2-14.6l-45.6-24.2l-0.4-39.6l35.3-16.6l46.8,25.2
		l-0.3-27.7l24.9-20.3l32.2,18.9l-0.4,62.9l32.8,18.6l26.2,15.7l-2-29.6l-0.3-36.6l-52.3-29.5l-0.3-35.3l27.6-18.2l24.4,14.3
		l-0.5-51.3l30.8-22L274.8,8l0.5,52.5l29-15.6l33.1,17.6l0.3,29.1l23.7-14.5l27.3,15l0.3,31.1l49-26.7l32.9,19l0.3,36.7l-44.3,25.9
		l24.7,13.4l0.3,36.1l-30.1,16.2L367,212.8l-31.8,21.1l-27.7,13l25.7,12.5l34,17l55.3-30.8l29.8,18.4l0.3,34.5l-23.1,13.2l43.5,26
		l0.4,38.5l-37.5,16.3l-44.6-24.1l0.3,27.9l-25.6,19.2l-27.4-18.4l-0.6-61.2l-36.1-19l-24.2-18l0.6,64.5l52.3,29.5l0.4,38
		l-28.2,15.3l-23.8-14l0.5,51.3L248.4,505.4z M239.1,472.3l9.1,6.2l8.9-6.4l-0.7-78.7l46.6,27.4l5.6-3.1l-0.1-12l-52.3-29.5
		l-0.8-88.3l-14.8,0.1l-2.8,39.5l0.5,48.9l-51.7,30.5l0.1,10.7l6.3,4l45.5-27.9L239.1,472.3z M125.3,386.8l3.4,2.6l5.6-4l-0.6-63
		l46.2-24.2l35.3-24l-8.2-12.7l-34.2,16.1l-45.2,27.5L73,273.3l-10.7,6l0.1,10.5l51,23.6l-70.4,41l0.1,12.2l13.3,5.2l68.4-39.3
		L125.3,386.8z M360.3,385.1l4.8,3.3l4.2-3.1l-0.5-54.1l68,36.8l14.3-6.2l-0.1-11.5l-65.2-39l44.6-25.5l-0.1-9.5l-8.5-5.2
		l-54.2,30.2l-44.3-22.2l-36.5-17.8l-6.4,12.3l33.1,24.5l46.3,24.3L360.3,385.1z M242.9,255.3l-0.8,10.7l13.1-0.1l-0.1-11.1l7.4,5.5
		l4.5-8.7l-10.5-5.1l10.2-4.8l-6-11.1l-7.3,4.8l0.1-9.4l-13.1,0.1l0.7,9.4l-8.3-5l-6.5,11.8l10.8,4.9l-10.1,4.7l6.3,9.8L242.9,255.3
		z M166.8,215l39.5,18.1l7.7-13.9l-35.1-21.1l-43.7-24.8l0.4-63.1l-8-4.7l-4.9,4l0.5,54.3l-69.8-37.7L40.9,132l0.1,12.4l69,36.7
		l-48.4,28.1l0.1,9.6l9.5,4.4l53.1-31.8L166.8,215z M279.2,218.5l7.5,13.8l37.7-17.7l41.7-27.6l55.9,31.8l7.7-4.1l-0.1-9.9
		L382,178.8l67-39.2l-0.1-11.3l-11.3-6.6l-70.4,38.4l-0.5-54.9l-4.8-2.7l-4.2,2.5l0.6,67.5L312,196.9L279.2,218.5z M236.2,164.8
		l2.7,39.3l14.9-0.1l0.4-39.1l-0.5-49.7l61.7-31.6l-0.1-7.7l-11.2-5.9l-50.6,27.2l-0.7-77.5l-9.1-6.2l-8.9,6.4l0.7,78.7l-46-27
		l-6.2,4.1l0.1,10.7l52.3,29.5L236.2,164.8z M275.9,128.5l0.3,36.3l0,0.1l-0.3,29.4l24.9-16.4l35.3-18.5l-0.6-61.5L275.9,128.5z"/>
</g>
</svg>
